<mxfile host="app.diagrams.net" modified="2023-04-20T03:10:13.089Z" agent="Mozilla/5.0 (Windows NT 10.0; Win64; x64) AppleWebKit/537.36 (KHTML, like Gecko) Chrome/112.0.0.0 Safari/537.36" etag="7dEsnt684TYhq7AKizyJ" version="21.1.8" type="github">
  <diagram name="Page-1" id="huQuVaCIMQbuwVKEC6QY">
    <mxGraphModel dx="880" dy="452" grid="1" gridSize="10" guides="1" tooltips="1" connect="1" arrows="1" fold="1" page="1" pageScale="1" pageWidth="827" pageHeight="1169" math="0" shadow="0">
      <root>
        <mxCell id="0" />
        <mxCell id="1" parent="0" />
        <mxCell id="bQP1wUEIivlOBXf3g05n-1" value="" style="rounded=0;whiteSpace=wrap;html=1;" vertex="1" parent="1">
          <mxGeometry x="200" y="50" width="470" height="650" as="geometry" />
        </mxCell>
        <mxCell id="bQP1wUEIivlOBXf3g05n-2" style="rounded=0;orthogonalLoop=1;jettySize=auto;html=1;exitX=0.25;exitY=0;exitDx=0;exitDy=0;entryX=0.25;entryY=1;entryDx=0;entryDy=0;endArrow=none;endFill=0;" edge="1" parent="1" source="bQP1wUEIivlOBXf3g05n-1" target="bQP1wUEIivlOBXf3g05n-1">
          <mxGeometry relative="1" as="geometry" />
        </mxCell>
        <mxCell id="bQP1wUEIivlOBXf3g05n-3" style="rounded=0;orthogonalLoop=1;jettySize=auto;html=1;exitX=0.75;exitY=0;exitDx=0;exitDy=0;entryX=0.75;entryY=1;entryDx=0;entryDy=0;endArrow=none;endFill=0;" edge="1" parent="1" source="bQP1wUEIivlOBXf3g05n-1" target="bQP1wUEIivlOBXf3g05n-1">
          <mxGeometry relative="1" as="geometry" />
        </mxCell>
      </root>
    </mxGraphModel>
  </diagram>
</mxfile>
